<svg width="23" height="23" xmlns="http://www.w3.org/2000/svg"><g fill="none" fill-rule="evenodd"><circle stroke="#4E5058" cx="11" cy="11" r="11"/><g fill-rule="nonzero" fill="#4E5058"><path d="M15.808 6.684h-2.49v-.397c0-.71-.59-1.287-1.315-1.287H9.637c-.726 0-1.316.578-1.316 1.287v.397H5.832a.327.327 0 0 0-.332.325c0 .18.148.325.332.325h.6v7.633c0 .957.797 1.737 1.776 1.737h5.224c.979 0 1.776-.78 1.776-1.737V7.334h.6a.327.327 0 0 0 .332-.325.327.327 0 0 0-.332-.325zm-6.823-.397c0-.351.293-.637.652-.637h2.366c.36 0 .652.286.652.637v.397h-3.67v-.397zm5.559 8.68c0 .599-.5 1.087-1.112 1.087H8.208a1.102 1.102 0 0 1-1.112-1.087V7.334h7.45v7.633h-.002z"/><path d="M10.554 15.108c.148 0 .266-.144.266-.324V9.048c0-.18-.118-.324-.266-.324-.148 0-.266.144-.266.324v5.733c0 .18.118.327.266.327zm-2.128-.532c.148 0 .266-.149.266-.335V9.06c0-.186-.118-.335-.266-.335-.148 0-.266.149-.266.335v5.182c0 .186.12.335.266.335zm4.256 0c.148 0 .266-.149.266-.335V9.06c0-.186-.118-.335-.266-.335-.148 0-.266.149-.266.335v5.182c0 .186.118.335.266.335z"/></g></g></svg>