<svg width="25" height="25" xmlns="http://www.w3.org/2000/svg"><g fill="#4E5058"><path d="M12.5 7.648a4.857 4.857 0 0 1 4.852 4.852.7.7 0 0 0 1.398 0 6.257 6.257 0 0 0-6.25-6.25 6.257 6.257 0 0 0-6.25 6.25 6.257 6.257 0 0 0 6.25 6.25 6.277 6.277 0 0 0 5.4-3.1.7.7 0 0 0-1.208-.706 4.873 4.873 0 0 1-4.192 2.408A4.857 4.857 0 0 1 7.648 12.5 4.857 4.857 0 0 1 12.5 7.648z"/><path d="M24.964 11.536C24.508 5.46 19.584.518 13.512.039a12.515 12.515 0 0 0-9.851 3.622 12.517 12.517 0 0 0-3.622 9.852c.477 6.05 5.399 10.97 11.448 11.448a12.506 12.506 0 0 0 9.852-3.621.728.728 0 0 0-1.03-1.03 11.062 11.062 0 0 1-8.707 3.199c-5.343-.421-9.69-4.768-10.11-10.111A11.062 11.062 0 0 1 4.69 4.69a11.06 11.06 0 0 1 8.708-3.199c5.363.423 9.71 4.788 10.114 10.154.055.735.039 1.473-.048 2.195a2.32 2.32 0 0 1-1.24 1.785 2.01 2.01 0 0 1-1.905-.003.728.728 0 1 0-.695 1.28c1.024.556 2.215.562 3.27.017a3.775 3.775 0 0 0 2.015-2.904c.099-.816.117-1.65.055-2.48z"/></g></svg>