<svg width="38" height="38" xmlns="http://www.w3.org/2000/svg"><path d="M37.925 22.033s-.144-4.137-1.384-5.997c0 0-.355-.487-1.195-.812l-.179-.057c-.746-.354-1.456-.58-1.456-.58a5.33 5.33 0 0 1-.41-.161c-.508-.252-.93-.54-1.016-.805 0 0 .044-.145-.101-.302.623-.715 1.075-1.632 1.223-2.51.125-.129.25-.338.306-.668.099-.37.226-1.011.002-1.31-.014-.015-.026-.032-.04-.043.21-.775.478-2.378-.473-3.468-.084-.11-.618-.753-1.757-1.093l-.544-.19c-.896-.28-1.463-.341-1.482-.344a.37.37 0 0 0-.125.01.53.53 0 0 1-.219.026c-.214-.031-.536.08-.593.102-.073.03-1.81.731-2.336 2.365-.047.131-.261.825.021 2.527a.612.612 0 0 0-.115.107c-.224.3-.097.943.007 1.311.05.326.176.535.299.665.138.938.586 1.836 1.174 2.527a.586.586 0 0 0-.167.257v-.012l-.007.033c-.092.292-.582.599-1.142.87-.164-.485-.352-.946-.595-1.307 0 0-.353-.49-1.193-.814l-.18-.057a12.794 12.794 0 0 0-1.455-.582 5.741 5.741 0 0 1-.41-.162c-.505-.252-.927-.539-1.016-.807 0 0 .045-.145-.101-.302.623-.715 1.078-1.632 1.223-2.51.125-.126.25-.338.306-.668.104-.37.229-1.014.005-1.31-.012-.015-.024-.032-.04-.043.21-.775.478-2.378-.47-3.466-.085-.109-.62-.755-1.76-1.094l-.544-.19c-.894-.28-1.461-.343-1.482-.345a.37.37 0 0 0-.125.01.523.523 0 0 1-.219.026c-.214-.029-.534.08-.593.102-.073.03-1.81.731-2.336 2.365-.047.131-.262.825.018 2.527a.688.688 0 0 0-.113.107c-.223.297-.096.94.005 1.309.05.328.179.534.299.665.136.938.584 1.836 1.174 2.527a.604.604 0 0 0-.167.254l-.002-.005-.007.031c-.233.746-3.06 1.61-3.06 1.61-.842.328-1.194.815-1.194.815-.236.35-.417.789-.58 1.256l-.013-.004c-.506-.252-.927-.54-1.017-.808 0 0 .045-.145-.101-.302.623-.714 1.075-1.631 1.223-2.51.125-.128.25-.337.306-.667.104-.37.229-1.012.005-1.314-.012-.014-.023-.03-.038-.042.21-.775.478-2.378-.473-3.468-.087-.107-.618-.75-1.76-1.088l-.545-.19c-.895-.28-1.462-.342-1.483-.344a.352.352 0 0 0-.122.01.544.544 0 0 1-.219.023c-.214-.028-.536.081-.595.102-.073.034-1.81.737-2.337 2.368-.05.133-.26.824.021 2.527a.54.54 0 0 0-.112.107c-.224.3-.1.94.002 1.311.052.325.176.534.301.665.141.938.588 1.836 1.177 2.527a.61.61 0 0 0-.17.257v-.005l-.01.028c-.235.746-3.058 1.61-3.058 1.61-.842.326-1.2.818-1.2.818C.146 17.894 0 22.03 0 22.03c.012.722.941 12.18 9.76 15.428.144-1.651.548-4.732 1.656-6.39 0 0 .445-.612 1.495-1.018 0 0 3.545-1.08 3.835-2.014l.007-.043.005.005a.725.725 0 0 1 .21-.32c-.737-.868-1.297-1.986-1.467-3.167-.155-.161-.313-.422-.379-.826-.13-.468-.287-1.273-.007-1.644a.622.622 0 0 1 .141-.133c-.35-2.137-.087-3.004-.025-3.168.663-2.047 2.837-2.926 2.929-2.961.07-.031.475-.17.744-.129a.84.84 0 0 0 .275-.033.38.38 0 0 1 .153-.014c.03.002.739.078 1.856.432l.685.235c1.426.428 2.092 1.228 2.198 1.368 1.193 1.366.86 3.373.6 4.34.016.018.03.04.047.054.277.377.124 1.18-.007 1.648-.069.411-.229.67-.38.827-.187 1.109-.752 2.256-1.538 3.151.181.2.127.378.127.378.113.337.638.696 1.275 1.012.153.066.318.135.51.206 0 0 .888.283 1.824.725l.231.073c1.05.404 1.492 1.017 1.492 1.017.98 1.468 1.414 4.068 1.602 5.79 8.207-2.862 8.07-14.827 8.07-14.827z" fill="#FFF"/></svg>