<svg width="23" height="23" xmlns="http://www.w3.org/2000/svg"><g fill="none" fill-rule="evenodd"><g fill-rule="nonzero"><path fill="#2C3E50" d="M9 13.667h3v1H9zm-.367-7H13.7V8h.633V6.667c0-.368-.283-.667-.633-.667H8.633C8.283 6 8 6.299 8 6.667V8h.633V6.667zM9 12.333h3.667v1H9z"/><path d="M15.375 8.333h-8.75a.632.632 0 0 0-.625.64v3.833c0 .353.28.638.625.638h1.25v1.917c0 .353.28.639.625.639h5a.632.632 0 0 0 .625-.639v-1.917h1.25a.632.632 0 0 0 .625-.638V8.972a.632.632 0 0 0-.625-.639zM13.5 15.361h-5v-3.833h5v3.833zm1.25-5.111a.632.632 0 0 1-.625-.639c0-.352.28-.639.625-.639s.625.287.625.64c0 .352-.28.638-.625.638z" fill="#4E5058"/></g><circle stroke="#4E5058" cx="11" cy="11" r="11"/></g></svg>