<svg width="16" height="18" xmlns="http://www.w3.org/2000/svg"><g fill="#4E5058"><path d="M13.116 11.814a2.88 2.88 0 0 0-2.266 1.103L5.56 9.862a2.866 2.866 0 0 0 0-2.145l5.29-3.054a2.879 2.879 0 0 0 2.266 1.103 2.886 2.886 0 0 0 2.882-2.883A2.886 2.886 0 0 0 13.116 0a2.886 2.886 0 0 0-2.675 3.955L5.15 7.01a2.879 2.879 0 0 0-2.266-1.103A2.886 2.886 0 0 0 .002 8.79a2.886 2.886 0 0 0 2.882 2.883 2.88 2.88 0 0 0 2.266-1.104l5.29 3.055a2.886 2.886 0 0 0 2.675 3.955 2.886 2.886 0 0 0 2.883-2.882 2.886 2.886 0 0 0-2.882-2.883zm0-10.997c1.138 0 2.065.927 2.065 2.066a2.068 2.068 0 0 1-2.065 2.065 2.068 2.068 0 0 1-2.066-2.065c0-1.14.927-2.066 2.066-2.066zM2.884 10.855A2.068 2.068 0 0 1 .82 8.79c0-1.14.927-2.066 2.065-2.066 1.14 0 2.066.927 2.066 2.066a2.068 2.068 0 0 1-2.066 2.065zm10.232 5.907a2.068 2.068 0 0 1-2.066-2.065c0-1.14.927-2.066 2.066-2.066 1.138 0 2.065.927 2.065 2.066a2.068 2.068 0 0 1-2.065 2.065z"/><path d="M2.884 7.574c-.67 0-1.215.546-1.215 1.216a.409.409 0 0 0 .818 0c0-.22.178-.398.397-.398a.409.409 0 0 0 0-.818z"/></g></svg>