<?xml version="1.0" encoding="UTF-8"?>
<svg width="40px" height="40px" viewBox="0 0 40 40" version="1.1" xmlns="http://www.w3.org/2000/svg" xmlns:xlink="http://www.w3.org/1999/xlink">
    <!-- Generator: Sketch 47 (45396) - http://www.bohemiancoding.com/sketch -->
    <title>play-button (2)</title>
    <desc>Created with Sketch.</desc>
    <defs></defs>
    <g id="HD-Desktop" stroke="none" stroke-width="1" fill="none" fill-rule="evenodd">
        <g id="Dashboard" transform="translate(-59.000000, -906.000000)" fill-rule="nonzero">
            <g id="play-button-(2)" transform="translate(79.000000, 926.000000) rotate(180.000000) translate(-79.000000, -926.000000) translate(59.000000, 906.000000)">
                <circle id="Oval" fill="#FFFFFF" cx="20" cy="20" r="20"></circle>
                <g id="Group" transform="translate(14.482759, 8.965517)" fill="#2C3E50">
                    <polygon id="Shape" stroke="#979797" points="15.862069 11.0344828 0.689655172 21.3793103 0.689655172 11.2227586 0.689655172 0.689655172"></polygon>
                    <path d="M0.689655172,22.0689655 C0.579310345,22.0689655 0.468275862,22.0427586 0.367586207,21.9889655 C0.14137931,21.8696552 0,21.6351724 0,21.3793103 L0,0.689655172 C0,0.433793103 0.14137931,0.199310345 0.367586207,0.08 C0.593793103,-0.04 0.866896552,-0.0234482759 1.07862069,0.12 L16.2510345,10.4648276 C16.4386207,10.5931034 16.5517241,10.8062069 16.5517241,11.0344828 C16.5517241,11.2627586 16.4386207,11.4758621 16.2503448,11.6041379 L1.07793103,21.9489655 C0.96137931,22.0282759 0.825517241,22.0689655 0.689655172,22.0689655 Z M1.37931034,1.99517241 L1.37931034,20.0744828 L14.637931,11.0344828 L1.37931034,1.99517241 Z" id="Shape"></path>
                </g>
            </g>
        </g>
    </g>
</svg>