<?xml version="1.0" encoding="UTF-8"?>
<svg width="16px" height="16px" viewBox="0 0 16 16" version="1.1" xmlns="http://www.w3.org/2000/svg" xmlns:xlink="http://www.w3.org/1999/xlink">
    <!-- Generator: Sketch 47 (45396) - http://www.bohemiancoding.com/sketch -->
    <title>plus (3)</title>
    <desc>Created with Sketch.</desc>
    <defs></defs>
    <g id="HD-Desktop" stroke="none" stroke-width="1" fill="none" fill-rule="evenodd">
        <g id="Dashboard" transform="translate(-122.000000, -110.000000)" fill-rule="nonzero" fill="#2C3E50">
            <g id="plus-(3)" transform="translate(122.000000, 110.000000)">
                <path d="M8,0 C3.58892308,0 0,3.58861538 0,8 C0,12.4113846 3.58892308,16 8,16 C12.4110769,16 16,12.4113846 16,8 C16,3.58861538 12.4110769,0 8,0 Z M11.8461538,8.61538462 L8.61538462,8.61538462 L8.61538462,12 C8.61538462,12.3396923 8.33969231,12.6153846 8,12.6153846 C7.66030769,12.6153846 7.38461538,12.3396923 7.38461538,12 L7.38461538,8.61538462 L4.15384615,8.61538462 C3.81415385,8.61538462 3.53846154,8.33969231 3.53846154,8 C3.53846154,7.66030769 3.81415385,7.38461538 4.15384615,7.38461538 L7.38461538,7.38461538 L7.38461538,4.30769231 C7.38461538,3.968 7.66030769,3.69230769 8,3.69230769 C8.33969231,3.69230769 8.61538462,3.968 8.61538462,4.30769231 L8.61538462,7.38461538 L11.8461538,7.38461538 C12.1858462,7.38461538 12.4615385,7.66030769 12.4615385,8 C12.4615385,8.33969231 12.1858462,8.61538462 11.8461538,8.61538462 Z" id="Shape"></path>
            </g>
        </g>
    </g>
</svg>