<?xml version="1.0" encoding="UTF-8"?>
<svg width="23px" height="23px" viewBox="0 0 23 23" version="1.1" xmlns="http://www.w3.org/2000/svg" xmlns:xlink="http://www.w3.org/1999/xlink">
    <!-- Generator: Sketch 47.1 (45422) - http://www.bohemiancoding.com/sketch -->
    <title>Group 8</title>
    <desc>Created with Sketch.</desc>
    <defs></defs>
    <g id="HD-Desktop" stroke="none" stroke-width="1" fill="none" fill-rule="evenodd">
        <g id="Edit-Delete-hover">
            <g id="Group-8">
                <circle id="Oval-8" stroke="#4E5058" cx="11" cy="11" r="11"></circle>
                <g id="garbage" transform="translate(5.500000, 5.000000)" fill-rule="nonzero" fill="#4E5058">
                    <path d="M10.3079615,1.68437505 L7.81889993,1.68437505 L7.81889993,1.28734379 C7.81889993,0.577500019 7.22860865,0 6.50304228,0 L4.13695806,0 C3.4113917,0 2.82110041,0.577500019 2.82110041,1.28734379 L2.82110041,1.68437505 L0.332038846,1.68437505 C0.14757282,1.68437505 0,1.82875006 0,2.00921881 C0,2.18968757 0.14757282,2.33406258 0.332038846,2.33406258 L0.932168315,2.33406258 L0.932168315,9.96668782 C0.932168315,10.9243754 1.72906154,11.7040004 2.70796125,11.7040004 L7.93203909,11.7040004 C8.9109388,11.7040004 9.70783203,10.9243754 9.70783203,9.96668782 L9.70783203,2.33406258 L10.3079615,2.33406258 C10.4924275,2.33406258 10.6400003,2.18968757 10.6400003,2.00921881 C10.6400003,1.82875006 10.4924275,1.68437505 10.3079615,1.68437505 Z M3.48517811,1.28734379 C3.48517811,0.93603128 3.7778642,0.649687521 4.13695806,0.649687521 L6.50304228,0.649687521 C6.86213614,0.649687521 7.15482224,0.93603128 7.15482224,1.28734379 L7.15482224,1.68437505 L3.48517811,1.68437505 L3.48517811,1.28734379 Z M9.04375434,9.96668782 C9.04375434,10.5658441 8.5444663,11.0543129 7.93203909,11.0543129 L2.70796125,11.0543129 C2.09553405,11.0543129 1.59624601,10.5658441 1.59624601,9.96668782 L1.59624601,2.33406258 L9.04621388,2.33406258 L9.04621388,9.96668782 L9.04375434,9.96668782 Z" id="Shape"></path>
                    <path d="M5.05400016,10.1080003 C5.20177795,10.1080003 5.32000017,9.96378345 5.32000017,9.78351236 L5.32000017,4.04848808 C5.32000017,3.86821699 5.20177795,3.72400012 5.05400016,3.72400012 C4.90622238,3.72400012 4.78800015,3.86821699 4.78800015,4.04848808 L4.78800015,9.78110875 C4.78800015,9.96137984 4.90622238,10.1080003 5.05400016,10.1080003 Z" id="Shape"></path>
                    <path d="M2.92600009,9.57600031 C3.07377788,9.57600031 3.1920001,9.42715757 3.1920001,9.24110416 L3.1920001,4.05889627 C3.1920001,3.87284285 3.07377788,3.72400012 2.92600009,3.72400012 C2.77822231,3.72400012 2.66000009,3.87284285 2.66000009,4.05889627 L2.66000009,9.24110416 C2.66000009,9.42715757 2.78019268,9.57600031 2.92600009,9.57600031 Z" id="Shape"></path>
                    <path d="M7.18200023,9.57600031 C7.32977801,9.57600031 7.44800024,9.42715757 7.44800024,9.24110416 L7.44800024,4.05889627 C7.44800024,3.87284285 7.32977801,3.72400012 7.18200023,3.72400012 C7.03422245,3.72400012 6.91600022,3.87284285 6.91600022,4.05889627 L6.91600022,9.24110416 C6.91600022,9.42715757 7.03422245,9.57600031 7.18200023,9.57600031 Z" id="Shape"></path>
                </g>
            </g>
        </g>
    </g>
</svg>