<?xml version="1.0" encoding="UTF-8"?>
<svg width="25px" height="25px" viewBox="0 0 25 25" version="1.1" xmlns="http://www.w3.org/2000/svg" xmlns:xlink="http://www.w3.org/1999/xlink">
    <!-- Generator: Sketch 47.1 (45422) - http://www.bohemiancoding.com/sketch -->
    <title>at</title>
    <desc>Created with Sketch.</desc>
    <defs></defs>
    <g id="HD-Desktop" stroke="none" stroke-width="1" fill="none" fill-rule="evenodd">
        <g id="Partners" transform="translate(-241.000000, -220.000000)" fill-rule="nonzero" fill="#4E5058">
            <g id="at" transform="translate(241.000000, 220.000000)">
                <path d="M12.5000583,7.64834064 C15.175292,7.64834064 17.3516724,9.82485784 17.3516724,12.5 C17.3516724,12.8860585 17.6647813,13.1991703 18.0508362,13.1991703 C18.4368911,13.1991703 18.75,12.8860585 18.75,12.5 C18.75,9.0537895 15.9462366,6.25 12.5000583,6.25 C9.05387989,6.25 6.25,9.0537895 6.25,12.5 C6.25,15.9462105 9.05376337,18.75 12.4999417,18.75 C14.7127952,18.75 16.7817374,17.5619931 17.8993507,15.6495292 C18.0941844,15.3161415 17.981852,14.8880162 17.6484674,14.6930642 C17.3151994,14.4984618 16.8869615,14.6106787 16.6920114,14.9439498 C15.824116,16.4291041 14.2177872,17.3516594 12.4998252,17.3516594 C9.82459146,17.3516594 7.64821107,15.1751422 7.64821107,12.5 C7.64821107,9.82485784 9.82482451,7.64834064 12.5000583,7.64834064 Z" id="Shape"></path>
                <path d="M24.9639036,11.5358042 C24.5075823,5.46041048 19.5844091,0.518077274 13.5123014,0.0392936755 C9.84182741,-0.250161048 6.251331,1.06980104 3.6606152,3.66069388 C1.06977804,6.25158673 -0.250155671,9.84240304 0.039292831,13.5125918 C0.516367071,19.5622562 5.43784114,24.4838361 11.4872542,24.9607992 C11.8206357,24.9871353 12.1528037,25 12.4841221,25 C15.8008257,25 18.9834242,23.6949658 21.3389404,21.3395204 C21.6232917,21.0550416 21.6232917,20.5939772 21.3389404,20.3097412 C21.0545891,20.0255052 20.5935346,20.0252624 20.3091833,20.3096198 C18.0200522,22.5986788 14.8464345,23.7648718 11.6018199,23.5089137 C6.25909817,23.087657 1.91251616,18.7409816 1.4911471,13.3980236 C1.23531589,10.1533393 2.40136252,6.97941061 4.69037224,4.69047305 C6.97938197,2.40141413 10.1526356,1.23485698 13.3977356,1.49117915 C18.7606035,1.91389227 23.1086419,6.2791365 23.5116853,11.6447897 C23.566905,12.3798954 23.5506425,13.1183994 23.4635045,13.839791 C23.3710266,14.6048738 22.907909,15.2725008 22.2246407,15.6254293 C21.606301,15.9449824 20.9116246,15.9437688 20.3185282,15.6222738 C19.9650005,15.4302749 19.5228786,15.5617128 19.3313693,15.9153695 C19.1396172,16.2689047 19.2708096,16.7109148 19.6244586,16.9025496 C20.6481476,17.4575502 21.8394375,17.4636185 22.8931029,16.9194193 C24.0052647,16.344879 24.7590445,15.258908 24.9092907,14.0145561 C25.0078367,13.1991069 25.0261623,12.3652103 24.9639036,11.5358042 Z" id="Shape"></path>
            </g>
        </g>
    </g>
</svg>