<?xml version="1.0" encoding="UTF-8"?>
<svg width="38px" height="38px" viewBox="0 0 38 38" version="1.1" xmlns="http://www.w3.org/2000/svg" xmlns:xlink="http://www.w3.org/1999/xlink">
    <!-- Generator: Sketch 47 (45396) - http://www.bohemiancoding.com/sketch -->
    <title>icon (1)</title>
    <desc>Created with Sketch.</desc>
    <defs></defs>
    <g id="HD-Desktop" stroke="none" stroke-width="1" fill="none" fill-rule="evenodd">
        <g id="Sidebar-small" transform="translate(-20.000000, -251.000000)" fill-rule="nonzero" fill="#FFFFFF">
            <g id="icon-(1)" transform="translate(20.000000, 251.000000)">
                <path d="M37.9247059,22.032875 C37.9247059,22.032875 37.7811765,17.895625 36.5411765,16.036 C36.5411765,16.036 36.1858824,15.549125 35.3458824,15.22375 C35.3458824,15.22375 35.2776471,15.202375 35.1670588,15.16675 C34.4211765,14.812875 33.7105882,14.58725 33.7105882,14.58725 C33.5576471,14.535 33.4211765,14.478 33.3011765,14.42575 C32.7929412,14.174 32.3717647,13.886625 32.2847059,13.620625 C32.2847059,13.620625 32.3294118,13.47575 32.1835294,13.319 C32.8070588,12.604125 33.2588235,11.687375 33.4070588,10.808625 C33.5317647,10.680375 33.6564706,10.471375 33.7129412,10.14125 C33.8117647,9.77075 33.9388235,9.1295 33.7152941,8.83025 C33.7011765,8.816 33.6894118,8.799375 33.6752941,8.7875 C33.8847059,8.01325 34.1529412,6.410125 33.2023529,5.32 C33.1176471,5.21075 32.5835294,4.567125 31.4447059,4.2275 L30.9011765,4.0375 C30.0047059,3.75725 29.4376471,3.6955 29.4188235,3.693125 C29.3764706,3.688375 29.3364706,3.693125 29.2941176,3.702625 C29.2635294,3.712125 29.16,3.743 29.0752941,3.72875 C28.8611765,3.697875 28.5388235,3.8095 28.4823529,3.830875 C28.4094118,3.86175 26.6729412,4.562375 26.1458824,6.196375 C26.0988235,6.327 25.8847059,7.0205 26.1670588,8.723375 C26.1247059,8.75425 26.0870588,8.7875 26.0517647,8.83025 C25.8282353,9.1295 25.9552941,9.773125 26.0588235,10.14125 C26.1082353,10.466625 26.2352941,10.675625 26.3576471,10.80625 C26.4964706,11.744375 26.9435294,12.642125 27.5317647,13.33325 C27.4141176,13.449625 27.3764706,13.544625 27.3647059,13.58975 L27.3647059,13.577875 L27.3576471,13.611125 C27.2658824,13.90325 26.7764706,14.209625 26.2164706,14.480375 C26.0517647,13.995875 25.8635294,13.535125 25.6211765,13.174125 C25.6211765,13.174125 25.2682353,12.684875 24.4282353,12.3595 C24.4282353,12.3595 24.3576471,12.338125 24.2470588,12.3025 C23.5011765,11.94625 22.7929412,11.720625 22.7929412,11.720625 C22.64,11.668375 22.5058824,11.611375 22.3835294,11.559125 C21.8776471,11.307375 21.4564706,11.02 21.3670588,10.751625 C21.3670588,10.751625 21.4117647,10.60675 21.2658824,10.45 C21.8894118,9.735125 22.3435294,8.818375 22.4894118,7.939625 C22.6141176,7.81375 22.7388235,7.602375 22.7952941,7.27225 C22.8988235,6.90175 23.0235294,6.258125 22.8,5.96125 C22.7882353,5.947 22.7764706,5.930375 22.76,5.9185 C22.9694118,5.14425 23.2376471,3.541125 22.2894118,2.453375 C22.2047059,2.344125 21.6705882,1.698125 20.5294118,1.3585 L19.9858824,1.1685 C19.0917647,0.88825 18.5247059,0.8265 18.5035294,0.824125 C18.4611765,0.819375 18.4211765,0.824125 18.3788235,0.833625 C18.3505882,0.8455 18.2447059,0.871625 18.16,0.85975 C17.9458824,0.83125 17.6258824,0.9405 17.5670588,0.961875 C17.4941176,0.99275 15.7576471,1.693375 15.2305882,3.327375 C15.1835294,3.458 14.9694118,4.1515 15.2494118,5.854375 C15.2094118,5.88525 15.1694118,5.920875 15.1364706,5.96125 C14.9129412,6.258125 15.04,6.90175 15.1411765,7.269875 C15.1905882,7.597625 15.32,7.80425 15.44,7.934875 C15.5764706,8.873 16.0235294,9.77075 16.6141176,10.461875 C16.4988235,10.5735 16.4611765,10.670875 16.4470588,10.716 L16.4447059,10.71125 L16.4376471,10.742125 C16.2047059,11.487875 13.3788235,12.352375 13.3788235,12.352375 C12.5364706,12.680125 12.1835294,13.167 12.1835294,13.167 C11.9482353,13.516125 11.7670588,13.9555 11.6047059,14.423375 C11.6,14.421 11.5952941,14.421 11.5905882,14.418625 C11.0847059,14.166875 10.6635294,13.8795 10.5741176,13.611125 C10.5741176,13.611125 10.6188235,13.46625 10.4729412,13.3095 C11.0964706,12.594625 11.5482353,11.677875 11.6964706,10.799125 C11.8211765,10.670875 11.9458824,10.461875 12.0023529,10.13175 C12.1058824,9.76125 12.2305882,9.12 12.0070588,8.818375 C11.9952941,8.804125 11.9835294,8.7875 11.9694118,8.775625 C12.1788235,8.001375 12.4470588,6.39825 11.4964706,5.308125 C11.4094118,5.20125 10.8776471,4.557625 9.73647059,4.220375 L9.19058824,4.030375 C8.29647059,3.750125 7.72941176,3.688375 7.70823529,3.686 C7.66588235,3.68125 7.62588235,3.686 7.58588235,3.6955 C7.55529412,3.705 7.44941176,3.7335 7.36705882,3.71925 C7.15294118,3.69075 6.83058824,3.8 6.77176471,3.821375 C6.69882353,3.854625 4.96235294,4.557625 4.43529412,6.18925 C4.38588235,6.32225 4.17411765,7.013375 4.45647059,8.71625 C4.41176471,8.747125 4.37647059,8.78275 4.34352941,8.823125 C4.12,9.122375 4.24470588,9.763625 4.34588235,10.134125 C4.39764706,10.4595 4.52235294,10.6685 4.64705882,10.799125 C4.78823529,11.73725 5.23529412,12.635 5.82352941,13.326125 C5.70823529,13.440125 5.66588235,13.5375 5.65411765,13.582625 L5.65411765,13.577875 L5.64470588,13.606375 C5.40941176,14.352125 2.58588235,15.216625 2.58588235,15.216625 C1.74352941,15.542 1.38588235,16.033625 1.38588235,16.033625 C0.145882353,17.89325 0,22.0305 0,22.0305 C0.0117647059,22.7525 0.941176471,34.211875 9.76,37.4585 C9.90352941,35.807875 10.3082353,32.7275 11.4164706,31.06975 C11.4164706,31.06975 11.8611765,30.457 12.9105882,30.050875 C12.9105882,30.050875 16.4564706,28.97025 16.7458824,28.036875 L16.7529412,27.994125 L16.7576471,27.998875 C16.7717647,27.94425 16.8188235,27.823125 16.9670588,27.67825 C16.2305882,26.811375 15.6705882,25.69275 15.5011765,24.512375 C15.3458824,24.350875 15.1882353,24.089625 15.1223529,23.685875 C14.9929412,23.218 14.8352941,22.412875 15.1152941,22.042375 C15.1576471,21.9925 15.2047059,21.94025 15.2564706,21.909375 C14.9058824,19.771875 15.1694118,18.905 15.2305882,18.741125 C15.8941176,16.693875 18.0682353,15.815125 18.16,15.7795 C18.2305882,15.748625 18.6352941,15.610875 18.9035294,15.65125 C19.0094118,15.663125 19.1435294,15.6275 19.1788235,15.618 C19.2329412,15.601375 19.2823529,15.599 19.3317647,15.60375 C19.3623529,15.606125 20.0705882,15.682125 21.1882353,16.036 L21.8729412,16.271125 C23.2988235,16.698625 23.9647059,17.499 24.0705882,17.639125 C25.2635294,19.00475 24.9317647,21.011625 24.6705882,21.97825 C24.6870588,21.99725 24.7011765,22.018625 24.7176471,22.032875 C24.9952941,22.4105 24.8423529,23.21325 24.7105882,23.681125 C24.6423529,24.092 24.4823529,24.350875 24.3317647,24.507625 C24.1435294,25.61675 23.5788235,26.763875 22.7929412,27.65925 C22.9741176,27.85875 22.92,28.036875 22.92,28.036875 C23.0329412,28.374125 23.5576471,28.73275 24.1952941,29.048625 C24.3482353,29.115125 24.5129412,29.184 24.7058824,29.25525 C24.7058824,29.25525 25.5929412,29.537875 26.5294118,29.979625 C26.6705882,30.02475 26.76,30.05325 26.76,30.05325 C27.8094118,30.457 28.2517647,31.06975 28.2517647,31.06975 C29.2329412,32.5375 29.6658824,35.138125 29.8541176,36.86 C38.0611765,33.998125 37.9247059,22.032875 37.9247059,22.032875 Z" id="Shape"></path>
            </g>
        </g>
    </g>
</svg>