<?xml version="1.0" encoding="UTF-8"?>
<svg width="14px" height="15px" viewBox="0 0 14 15" version="1.1" xmlns="http://www.w3.org/2000/svg" xmlns:xlink="http://www.w3.org/1999/xlink">
    <!-- Generator: Sketch 47.1 (45422) - http://www.bohemiancoding.com/sketch -->
    <title>garbage</title>
    <desc>Created with Sketch.</desc>
    <defs></defs>
    <g id="HD-Desktop" stroke="none" stroke-width="1" fill="none" fill-rule="evenodd">
        <g id="Event-Hover" transform="translate(-216.000000, -20.000000)" fill-rule="nonzero" fill="#FFFFFF">
            <g id="garbage" transform="translate(216.000000, 20.000000)">
                <path d="M13.5631068,2.15871711 L10.2880259,2.15871711 L10.2880259,1.64987664 C10.2880259,0.740131579 9.51132686,0 8.5566343,0 L5.4433657,0 C4.48867314,0 3.71197411,0.740131579 3.71197411,1.64987664 L3.71197411,2.15871711 L0.436893204,2.15871711 C0.194174757,2.15871711 0,2.34375 0,2.57504112 C0,2.80633224 0.194174757,2.99136513 0.436893204,2.99136513 L1.22653722,2.99136513 L1.22653722,12.7734375 C1.22653722,14.0008224 2.27508091,15 3.5631068,15 L10.4368932,15 C11.7249191,15 12.7734628,14.0008224 12.7734628,12.7734375 L12.7734628,2.99136513 L13.5631068,2.99136513 C13.8058252,2.99136513 14,2.80633224 14,2.57504112 C14,2.34375 13.8058252,2.15871711 13.5631068,2.15871711 Z M4.58576052,1.64987664 C4.58576052,1.19962993 4.97087379,0.832648026 5.4433657,0.832648026 L8.5566343,0.832648026 C9.02912621,0.832648026 9.41423948,1.19962993 9.41423948,1.64987664 L9.41423948,2.15871711 L4.58576052,2.15871711 L4.58576052,1.64987664 Z M11.8996764,12.7734375 C11.8996764,13.541324 11.2427184,14.167352 10.4368932,14.167352 L3.5631068,14.167352 C2.75728155,14.167352 2.10032362,13.541324 2.10032362,12.7734375 L2.10032362,2.99136513 L11.9029126,2.99136513 L11.9029126,12.7734375 L11.8996764,12.7734375 Z" id="Shape"></path>
                <path d="M6.65,12.9545455 C6.84444444,12.9545455 7,12.7697152 7,12.5386774 L7,5.18859529 C7,4.9575575 6.84444444,4.77272727 6.65,4.77272727 C6.45555556,4.77272727 6.3,4.9575575 6.3,5.18859529 L6.3,12.5355969 C6.3,12.7666347 6.45555556,12.9545455 6.65,12.9545455 Z" id="Shape"></path>
                <path d="M3.85,12.2727273 C4.04444444,12.2727273 4.2,12.0819685 4.2,11.84352 L4.2,5.20193456 C4.2,4.96348607 4.04444444,4.77272727 3.85,4.77272727 C3.65555556,4.77272727 3.5,4.96348607 3.5,5.20193456 L3.5,11.84352 C3.5,12.0819685 3.65814815,12.2727273 3.85,12.2727273 Z" id="Shape"></path>
                <path d="M9.45,12.2727273 C9.64444444,12.2727273 9.8,12.0819685 9.8,11.84352 L9.8,5.20193456 C9.8,4.96348607 9.64444444,4.77272727 9.45,4.77272727 C9.25555556,4.77272727 9.1,4.96348607 9.1,5.20193456 L9.1,11.84352 C9.1,12.0819685 9.25555556,12.2727273 9.45,12.2727273 Z" id="Shape"></path>
            </g>
        </g>
    </g>
</svg>