<?xml version="1.0" encoding="UTF-8"?>
<svg width="12px" height="17px" viewBox="0 0 12 17" version="1.1" xmlns="http://www.w3.org/2000/svg" xmlns:xlink="http://www.w3.org/1999/xlink">
    <!-- Generator: Sketch 47.1 (45422) - http://www.bohemiancoding.com/sketch -->
    <title>placeholder</title>
    <desc>Created with Sketch.</desc>
    <defs></defs>
    <g id="HD-Desktop" stroke="none" stroke-width="1" fill="none" fill-rule="evenodd">
        <g id="Statistics" transform="translate(-1127.000000, -1307.000000)" fill-rule="nonzero" fill="#4E5058">
            <g id="placeholder" transform="translate(1127.000000, 1307.000000)">
                <path d="M6,4 C4.89742857,4 4,4.89742857 4,6 C4,7.10257143 4.89742857,8 6,8 C7.10257143,8 8,7.10257143 8,6 C8,4.89742857 7.10257143,4 6,4 Z M6,7.42857143 C5.21228571,7.42857143 4.57142857,6.78771429 4.57142857,6 C4.57142857,5.21228571 5.21228571,4.57142857 6,4.57142857 C6.78771429,4.57142857 7.42857143,5.21228571 7.42857143,6 C7.42857143,6.78771429 6.78771429,7.42857143 6,7.42857143 Z" id="Shape"></path>
                <path d="M10.2435196,1.74386836 C9.1101989,0.619372866 7.60327659,0 6.00060713,0 C4.39762478,0 2.89101537,0.619372866 1.75769464,1.74386836 C-0.339668369,3.82458864 -0.600313362,7.73952189 1.19322457,10.1114561 L6.00060713,17 L10.800793,10.1210804 C12.6015276,7.73952189 12.3408826,3.82458864 10.2435196,1.74386836 Z M10.2932706,9.75814964 L6.00060713,15.9090345 L1.7010599,9.7485253 C0.0742972083,7.59639863 0.307407076,4.06085067 2.20044694,2.18286247 C3.21549179,1.17572183 4.56502583,0.620925179 6.00060713,0.620925179 C7.43618844,0.620925179 8.78572248,1.17572183 9.80108023,2.18286247 C11.6941201,4.06085067 11.92723,7.59639863 10.2932706,9.75814964 Z" id="Shape"></path>
            </g>
        </g>
    </g>
</svg>