<?xml version="1.0" encoding="UTF-8"?>
<svg width="40px" height="40px" viewBox="0 0 40 40" version="1.1" xmlns="http://www.w3.org/2000/svg" xmlns:xlink="http://www.w3.org/1999/xlink">
    <!-- Generator: Sketch 47 (45396) - http://www.bohemiancoding.com/sketch -->
    <title>noun_663566_cc</title>
    <desc>Created with Sketch.</desc>
    <defs></defs>
    <g id="HD-Desktop" stroke="none" stroke-width="1" fill="none" fill-rule="evenodd">
        <g id="Sidebar-small" transform="translate(-20.000000, -367.000000)" fill-rule="nonzero" fill="#FFFFFF">
            <g id="noun_663566_cc" transform="translate(20.000000, 367.000000)">
                <path d="M20.0000081,0.0382801702 C9.01305668,0.0382801702 0.106391106,8.9449717 0.106391106,19.9318972 C0.106391106,30.9188486 9.01305668,39.8255142 20.0000081,39.8255142 C30.9869352,39.8255142 39.8936268,30.9188486 39.8936268,19.9318972 C39.8936268,8.94497162 30.9869352,0.0382801702 20.0000081,0.0382801702 Z M7.69539855,19.89899 L6.09209591,18.8868194 C5.76354498,18.6794037 5.66536928,18.2449373 5.87278489,17.9164123 L9.58896881,12.0301559 C9.79635847,11.7016309 10.2308249,11.6034552 10.5593499,11.8108449 L12.1626525,12.8230156 C12.4912034,13.0304312 12.5893791,13.4648977 12.3819635,13.7934226 L8.66577962,19.679679 C8.45836396,20.008204 8.02392349,20.1063797 7.69539855,19.89899 Z M11.5799356,25.1949197 C11.3718447,25.2311252 11.1637278,25.1845826 10.9957383,25.0651355 L10.9646233,25.0425136 C10.6181774,24.7960614 10.5346242,24.3118059 10.7781154,23.963438 L11.736783,22.5926403 C11.8862282,22.3789654 12.1253042,22.2624531 12.3724317,22.2624531 C12.5154877,22.2624531 12.6611669,22.3014377 12.7937301,22.3832249 C12.9762901,22.4959711 13.1016589,22.6732587 13.1463834,22.8827002 C13.1881471,23.0775192 13.1519156,23.2743381 13.0496622,23.4435743 L12.0399849,24.9218718 C11.9228233,25.0643823 11.7635605,25.1621685 11.5799356,25.1949197 Z M13.8462359,26.294955 L13.7065043,26.4998253 C13.585395,26.6774506 13.4023674,26.7962744 13.190978,26.8346097 C12.9802379,26.8742695 12.766537,26.8264283 12.5884182,26.7009037 C12.2344403,26.4518023 12.1451471,25.9584046 12.3891319,25.6008164 L12.5950671,25.2993287 C12.6087027,25.281226 12.6255328,25.2664996 12.6383891,25.2476956 C12.9358251,24.8130993 13.2873097,24.2960926 13.5850833,23.8575744 C13.5932386,23.8454973 13.5977838,23.8319656 13.6055755,23.8197326 L14.4098371,22.6421437 C14.5628925,22.4181317 14.8149287,22.2965289 15.0703933,22.2965289 C15.2191892,22.2965289 15.3693097,22.3376692 15.501717,22.4238456 C15.6826149,22.5416824 15.8056981,22.7230737 15.8479811,22.9348008 C15.89042,23.1465278 15.8468124,23.3613716 15.7252356,23.539828 L15.4482139,23.9460105 C15.4421883,23.9543736 15.4341368,23.9608147 15.428293,23.9693337 L13.9139718,26.1701056 C13.8868308,26.2095317 13.8691955,26.2534511 13.8462359,26.294955 Z M16.0052961,27.1255266 L15.7796478,27.4537139 C15.5490648,27.7889917 15.1046509,27.8958422 14.7454526,27.7031269 C14.543569,27.5944843 14.4026168,27.4119243 14.3488799,27.1890551 C14.3066228,27.0143907 14.325193,26.8381419 14.3969288,26.6788012 L16.0014262,24.3260128 C16.1284053,24.1558156 16.3114069,24.0438486 16.5229521,24.0132531 C16.5621185,24.0075131 16.6012849,24.0047341 16.6399578,24.0047341 C16.8208816,24.0047341 16.9944032,24.066003 17.1381345,24.1823594 C17.4591534,24.4420835 17.527331,24.912236 17.2933197,25.2524486 L16.837426,25.9154462 C16.8267254,25.9295751 16.813012,25.9408472 16.8028567,25.9554437 L16.0657598,27.014053 C16.0412419,27.0492716 16.0261,27.0885679 16.0052961,27.1255266 Z M18.4168081,27.0797632 L17.6792437,28.1378791 C17.5042157,28.3889283 17.1841837,28.4826628 16.9010065,28.3661506 C16.7187841,28.2909345 16.5822731,28.1391777 16.5267182,27.9500726 C16.4833183,27.8021597 16.4954993,27.647494 16.5559891,27.5094247 L17.3893137,26.2975522 C17.4924761,26.1727029 17.633818,26.0900586 17.7965611,26.0675406 C17.8268709,26.0632811 17.8572066,26.0613072 17.8873606,26.0613072 C18.0361306,26.0613072 18.1788749,26.1122651 18.2968675,26.209272 C18.5559423,26.4223237 18.6087182,26.8046115 18.4168081,27.0797632 Z M28.2907137,23.5706573 C28.022133,24.0149153 27.3923541,24.1311418 26.9468754,23.864587 L26.3093307,23.4830524 L26.1394192,23.3813444 L26.1393413,23.3813444 L22.7117092,21.3301736 C22.5522646,21.2346471 22.3464333,21.2867477 22.2514002,21.4456989 C22.1561854,21.6048318 22.2079743,21.8109748 22.3669255,21.9060338 L25.964547,24.0589126 L26.2072591,24.2041503 C26.3634312,24.297547 26.4717362,24.4466806 26.5122012,24.6239942 C26.552848,24.8014637 26.5200709,24.9828809 26.420129,25.1349494 C26.1138364,25.6005048 25.4904711,25.7563392 25.0013327,25.4897324 L21.6522947,23.6643657 C21.4893958,23.5750466 21.2855384,23.6355103 21.1970504,23.7984093 C21.1082248,23.9611264 21.1683769,24.1649838 21.331094,24.2536536 L23.7526054,25.5734674 L24.351581,25.9390551 C24.5041429,26.032296 24.6068898,26.1802868 24.6409656,26.3557823 C24.6750414,26.5312779 24.6350698,26.7069552 24.5147916,26.8701659 C24.2391465,27.3018013 23.687077,27.452727 23.2300406,27.2203518 L20.6369295,25.9038365 C20.4722385,25.8200755 20.2698614,25.8859675 20.1858148,26.051152 C20.1018979,26.2163365 20.1677899,26.4183759 20.3331303,26.5022927 L22.1955856,27.4478701 C22.4449986,27.5745116 22.446505,27.9426964 22.1900015,28.0542739 C21.788598,28.2288864 21.3411194,28.2911163 20.8901345,28.2219517 L18.8404181,27.9085687 C18.7640852,27.8968811 18.7264771,27.8091983 18.7706302,27.7458256 L18.9436064,27.4977112 C19.1834616,27.1536287 19.2738715,26.7149548 19.1451003,26.3157849 C18.9825131,25.8117383 18.5682532,25.4885637 18.1075806,25.4092959 C18.0419483,25.3980239 18.0045221,25.3355603 18.0257415,25.2724473 C18.2164309,24.7047944 18.045039,24.052835 17.5606017,23.6605997 C17.2971376,23.4471326 16.9670803,23.3376848 16.6314129,23.3398925 C16.5675986,23.340308 16.5204328,23.2889866 16.5265882,23.225484 C16.5400939,23.086168 16.5345877,22.9443067 16.5062518,22.802887 C16.4181534,22.3634339 16.1413655,21.9944958 15.7358843,21.7847167 C15.0692765,21.4398551 14.2450681,21.6934237 13.8217438,22.3131772 L13.8144975,22.323774 C13.7697731,22.3892764 13.6754932,22.3804977 13.6353658,22.3120604 C13.5164901,22.1093977 13.3476175,21.9363176 13.1350853,21.8052349 C12.5429664,21.4396992 11.787507,21.5552245 11.3238476,22.0482846 C11.2789153,22.0960739 11.2041148,22.095918 11.1644809,22.0436615 L9.79495587,20.237852 C9.56917774,19.9401563 9.55175026,19.5336102 9.75121834,19.2176819 L12.3642243,15.0788749 C12.6129101,14.6850034 13.1218134,14.5472198 13.5352163,14.7618557 L13.8777403,14.9396888 C13.9926423,14.9993474 14.1163748,15.0401241 14.244237,15.0604345 L15.8273331,15.3120032 L14.359944,17.2207414 C14.2070705,17.4195862 14.1019082,17.6571817 14.0884545,17.9076596 C14.0645339,18.3523072 14.2690406,18.7555289 14.6314336,18.9945789 C15.0097477,19.2441218 15.5035611,19.2375508 15.9051724,19.0275898 L19.5344267,17.1303315 C19.7053251,17.0408566 19.9119876,17.0505183 20.0735619,17.1555767 L27.9952515,22.2898021 C28.2084331,22.4277935 28.3542941,22.6406633 28.4063947,22.8892452 C28.4556904,23.1251006 28.414706,23.3655272 28.2907137,23.5706573 Z M30.4862132,20.1375986 L28.6016034,21.9186304 C28.5279457,21.8480634 28.4478987,21.7831323 28.3603457,21.7264086 L20.4386042,16.5922351 C20.0734581,16.3556006 19.6091754,16.3338876 19.223563,16.5354854 L15.541377,18.4603005 C15.3589728,18.5555154 15.1348049,18.536997 14.9706074,18.412771 C14.8558872,18.3259193 14.7821516,18.1997453 14.762984,18.0571828 C14.7439722,17.9149319 14.7815023,17.773694 14.8691591,17.659805 L16.6019343,15.4057377 C16.9209533,14.9907766 17.3820674,14.7083266 17.8966847,14.6127222 L19.9291814,14.2350574 C21.0677338,14.0234862 22.2366999,14.0370957 23.3700059,14.2750809 L25.5306244,14.7287929 C25.7645839,14.7779327 26.0078431,14.7564275 26.2295435,14.6670046 L26.8632703,14.411462 C27.0748155,14.3261427 27.3170861,14.4043456 27.4388707,14.5972167 L30.5611177,19.5425967 C30.6815517,19.733338 30.650151,19.9826472 30.4862132,20.1375986 Z M33.9119217,18.6300042 L32.2775042,19.6772636 C31.9488234,19.8878739 31.511526,19.7906072 31.3031234,19.4605239 L27.5869654,13.5744492 C27.3805367,13.2474826 27.4766866,12.8151979 27.8022766,12.6065615 L29.4366942,11.5593021 C29.765375,11.3486919 30.2026724,11.4459845 30.411075,11.7760678 L34.127233,17.6621425 C34.3336617,17.9891091 34.2374858,18.4213939 33.9119217,18.6300042 Z" id="Shape"></path>
            </g>
        </g>
    </g>
</svg>