<?xml version="1.0" encoding="UTF-8"?>
<svg width="23px" height="23px" viewBox="0 0 23 23" version="1.1" xmlns="http://www.w3.org/2000/svg" xmlns:xlink="http://www.w3.org/1999/xlink">
    <!-- Generator: Sketch 47.1 (45422) - http://www.bohemiancoding.com/sketch -->
    <title>Group 26</title>
    <desc>Created with Sketch.</desc>
    <defs></defs>
    <g id="HD-Desktop" stroke="none" stroke-width="1" fill="none" fill-rule="evenodd">
        <g id="Schedule-hover">
            <g id="Group-26">
                <g id="printer" transform="translate(6.000000, 6.000000)" fill-rule="nonzero">
                    <rect id="Rectangle-path" fill="#2C3E50" x="3" y="7.66666667" width="3" height="1"></rect>
                    <path d="M2.63338972,0.66668865 L7.70006892,0.66668865 L7.70006892,2 L8.33333333,2 L8.33333333,0.66668865 C8.33335422,0.298863461 8.05008634,0 7.70006892,0 L2.63338972,0 C2.28360204,0 2,0.298863461 2,0.66668865 L2,2 L2.63338972,2 L2.63338972,0.66668865 Z" id="Shape" fill="#2C3E50"></path>
                    <rect id="Rectangle-path" fill="#2C3E50" x="3" y="6.33333333" width="3.66666667" height="1"></rect>
                    <path d="M9.37507729,2.33333333 L0.625046373,2.33333333 C0.279866281,2.33333333 0,2.61966382 0,2.97218887 L0,6.80557487 C0,7.15864768 0.279866281,7.4443672 0.625046373,7.4443672 L1.87507729,7.4443672 L1.87507729,9.36110233 C1.87507729,9.71428048 2.15494357,10 2.50012366,10 L7.50006183,10 C7.84546864,10 8.12498454,9.71428048 8.12498454,9.36110233 L8.12498454,7.4443672 L9.37505668,7.4443672 C9.72048409,7.4443672 10,7.15864768 10,6.80557487 L10,2.97218887 C10.0000206,2.61966382 9.7205047,2.33333333 9.37507729,2.33333333 Z M7.50006183,9.3611234 L2.50012366,9.3611234 L2.50012366,5.5277374 L7.50006183,5.5277374 L7.50006183,9.3611234 Z M8.74994847,4.25002633 C8.40452106,4.25002633 8.12500515,3.96426468 8.12500515,3.6111076 C8.12500515,3.25862469 8.40452106,2.97218887 8.74994847,2.97218887 C9.09547894,2.97218887 9.37507729,3.25860362 9.37507729,3.6111076 C9.37507729,3.96424361 9.09545833,4.25002633 8.74994847,4.25002633 Z" id="Shape" fill="#4E5058"></path>
                </g>
                <circle id="Oval-8" stroke="#4E5058" cx="11" cy="11" r="11"></circle>
            </g>
        </g>
    </g>
</svg>