<?xml version="1.0" encoding="UTF-8"?>
<svg width="19px" height="19px" viewBox="0 0 19 19" version="1.1" xmlns="http://www.w3.org/2000/svg" xmlns:xlink="http://www.w3.org/1999/xlink">
    <!-- Generator: Sketch 47 (45396) - http://www.bohemiancoding.com/sketch -->
    <title>magnifying-glass</title>
    <desc>Created with Sketch.</desc>
    <defs></defs>
    <g id="HD-Desktop" stroke="none" stroke-width="1" fill="none" fill-rule="evenodd">
        <g id="Dashboard" transform="translate(-610.000000, -36.000000)" fill-rule="nonzero" fill="#7C7C7C">
            <g id="magnifying-glass" transform="translate(610.000000, 36.000000)">
                <path d="M18.835662,18.0310421 L14.2173431,13.4137472 C15.4561987,11.9898004 16.2062542,10.131929 16.2062542,8.10133038 C16.2062542,3.63148559 12.5697494,0 8.10312708,0 C3.63229097,0 0,3.63569845 0,8.10133038 C0,12.5669623 3.63650477,16.2026608 8.10312708,16.2026608 C10.1341761,16.2026608 11.9924595,15.4527716 13.4167221,14.2141907 L18.035041,18.8314856 C18.1445997,18.94102 18.2920825,19 18.4353515,19 C18.5786205,19 18.7261033,18.9452328 18.835662,18.8314856 C19.0547793,18.6124169 19.0547793,18.2501109 18.835662,18.0310421 Z M1.13351076,8.10133038 C1.13351076,4.25920177 4.26014637,1.13747228 8.09891328,1.13747228 C11.941894,1.13747228 15.0643158,4.26341463 15.0643158,8.10133038 C15.0643158,11.9392461 11.941894,15.0694013 8.09891328,15.0694013 C4.26014637,15.0694013 1.13351076,11.943459 1.13351076,8.10133038 Z" id="Shape"></path>
            </g>
        </g>
    </g>
</svg>