<?xml version="1.0" encoding="UTF-8"?>
<svg width="16px" height="18px" viewBox="0 0 16 18" version="1.1" xmlns="http://www.w3.org/2000/svg" xmlns:xlink="http://www.w3.org/1999/xlink">
    <!-- Generator: Sketch 47 (45396) - http://www.bohemiancoding.com/sketch -->
    <title>share</title>
    <desc>Created with Sketch.</desc>
    <defs></defs>
    <g id="HD-Desktop" stroke="none" stroke-width="1" fill="none" fill-rule="evenodd">
        <g id="Dashboard" transform="translate(-240.000000, -759.000000)" fill-rule="nonzero" fill="#4E5058">
            <g id="share" transform="translate(240.000000, 759.000000)">
                <path d="M13.1155365,11.8138026 C12.1973219,11.8138026 11.3786094,12.2458369 10.8503348,12.9167725 L5.55958798,9.86221459 C5.69308155,9.5304721 5.76727897,9.16872103 5.76727897,8.78973391 C5.76727897,8.41078112 5.69304721,8.04903004 5.55958798,7.71725322 L10.8503348,4.66269528 C11.3786438,5.33359657 12.1973219,5.76566524 13.1155365,5.76566524 C14.705133,5.76566524 15.9983519,4.47241202 15.9983519,2.88284979 C15.9983519,1.29325322 14.7051674,0 13.1155365,0 C11.5259056,0 10.232721,1.29321888 10.232721,2.88278112 C10.232721,3.26176824 10.3069871,3.62358798 10.440515,3.95539914 L5.14983691,7.00995708 C4.6215279,6.33898712 3.80278112,5.90688412 2.88449785,5.90688412 C1.29490129,5.90688412 0.00168240343,7.20013734 0.00168240343,8.78969957 C0.00168240343,10.3792618 1.29490129,11.672515 2.88449785,11.672515 C3.80278112,11.672515 4.6215279,11.240412 5.14983691,10.5694421 L10.440515,13.6240343 C10.3069871,13.9558455 10.232721,14.3176309 10.232721,14.6966524 C10.232721,16.2862489 11.5259399,17.5794335 13.1155365,17.5794335 C14.705133,17.5794335 15.9983519,16.2862146 15.9983519,14.6966524 C15.9983519,13.1070901 14.7051674,11.8138026 13.1155365,11.8138026 Z M13.1155365,0.81744206 C14.2543863,0.81744206 15.1809442,1.74396567 15.1809442,2.88278112 C15.1809442,4.0216309 14.2544206,4.94818884 13.1155365,4.94818884 C11.9766867,4.94818884 11.0501288,4.0216309 11.0501288,2.88278112 C11.0501631,1.74393133 11.976721,0.81744206 13.1155365,0.81744206 Z M2.88449785,10.8551073 C1.74564807,10.8551073 0.819090129,9.92854936 0.819090129,8.78969957 C0.819090129,7.65084979 1.74561373,6.72429185 2.88449785,6.72429185 C4.02334764,6.72429185 4.94990558,7.65084979 4.94990558,8.78969957 C4.94990558,9.92854936 4.02334764,10.8551073 2.88449785,10.8551073 Z M13.1155365,16.7619571 C11.9766867,16.7619571 11.0501288,15.8354335 11.0501288,14.696618 C11.0501288,13.5577682 11.9766524,12.6312103 13.1155365,12.6312103 C14.2543863,12.6312103 15.1809442,13.5577682 15.1809442,14.696618 C15.1809442,15.8354678 14.2543863,16.7619571 13.1155365,16.7619571 Z" id="Shape"></path>
                <path d="M2.88449785,7.57445494 C2.2144206,7.57445494 1.66925322,8.11958798 1.66925322,8.78969957 C1.66925322,9.01538197 1.85222318,9.1984206 2.07797425,9.1984206 C2.30372532,9.1984206 2.48669528,9.01538197 2.48669528,8.78969957 C2.48669528,8.57033476 2.66513305,8.391897 2.88449785,8.391897 C3.11021459,8.391897 3.29321888,8.20885837 3.29321888,7.98317597 C3.29321888,7.75745923 3.11021459,7.57445494 2.88449785,7.57445494 Z" id="Shape"></path>
            </g>
        </g>
    </g>
</svg>