<?xml version="1.0" encoding="UTF-8"?>
<svg width="26px" height="26px" viewBox="0 0 26 26" version="1.1" xmlns="http://www.w3.org/2000/svg" xmlns:xlink="http://www.w3.org/1999/xlink">
    <!-- Generator: Sketch 47 (45396) - http://www.bohemiancoding.com/sketch -->
    <title>ticket</title>
    <desc>Created with Sketch.</desc>
    <defs></defs>
    <g id="HD-Desktop" stroke="none" stroke-width="1" fill="none" fill-rule="evenodd">
        <g id="Dashboard" transform="translate(-787.000000, -369.000000)" fill-rule="nonzero" fill="#2384DE">
            <g id="ticket" transform="translate(787.000000, 369.000000)">
                <path d="M25.1875008,9.6433266 C25.1875008,9.10143011 25.3985366,8.59199676 25.7817131,8.20882023 C25.97948,8.01105334 25.97948,7.69037216 25.7817131,7.49255462 L23.9022439,5.6130854 C23.8072854,5.5181269 23.6784457,5.46474756 23.5441364,5.46474756 C23.4098271,5.46474756 23.2809874,5.5181269 23.1860289,5.6130854 C22.8028524,5.99626193 22.2934191,6.20729769 21.7515226,6.20729769 C21.2096261,6.20729769 20.7001927,5.99626193 20.3170162,5.6130854 C19.5259993,4.8221191 19.5259993,3.53508961 20.3170162,2.74412331 C20.5147831,2.54635642 20.5147831,2.22567524 20.3170162,2.02790834 L18.4374963,0.148388478 C18.2397294,-0.0493784185 17.9190483,-0.049327774 17.7212814,0.148388478 C17.3381048,0.531565006 16.8286208,0.74260077 16.286775,0.74260077 C15.7448785,0.74260077 15.2354452,0.531565006 14.8522686,0.148388478 C14.6545017,-0.0493784185 14.3338206,-0.0493784185 14.1360537,0.148388478 L0.148337834,14.1360537 C0.0533793366,14.2310122 0,14.3598518 0,14.4941611 C0,14.6284704 0.0533793366,14.7573101 0.148337834,14.8522686 C0.531514362,15.2354452 0.742550126,15.7448785 0.742550126,16.286775 C0.742550126,16.8286715 0.531514362,17.3381048 0.148337834,17.7212814 C-0.0494290631,17.9190483 -0.0494290631,18.2397294 0.148337834,18.437547 L2.02780706,20.3170162 C2.2256246,20.5147831 2.54630577,20.5147831 2.74402202,20.3170162 C3.12719855,19.9338903 3.6366319,19.7228545 4.17857903,19.7228545 C4.72052617,19.7228545 5.22995951,19.9338903 5.6130854,20.3170162 C5.99626193,20.7001927 6.20729769,21.2096767 6.20729769,21.7515226 C6.20729769,22.2934191 5.99626193,22.8028524 5.6130854,23.1860289 C5.5181269,23.2809874 5.46474756,23.4098271 5.46474756,23.5441364 C5.46474756,23.6784457 5.5181269,23.8072854 5.6130854,23.9022439 L7.49255462,25.7816625 C7.59146339,25.8805712 7.7210121,25.9300003 7.8506621,25.9300003 C7.98026146,25.9300003 8.10991146,25.8805206 8.20876959,25.7816625 C8.59194612,25.3985366 9.10143011,25.1875008 9.64327595,25.1875008 C10.1851218,25.1875008 10.6945551,25.3985366 11.0777317,25.7816625 C11.2754986,25.9794294 11.5961797,25.9794294 11.7939973,25.7816625 L25.7816625,11.7940479 C25.876621,11.6990388 25.9300003,11.5702497 25.9300003,11.4359404 C25.9300003,11.3016311 25.876621,11.1727915 25.7816625,11.077833 C25.3985366,10.6947071 25.1875008,10.1852231 25.1875008,9.6433266 Z M11.406364,24.7368658 C10.8950062,24.3716174 10.2842838,24.1746608 9.64327595,24.1746608 C9.00226811,24.1746608 8.3915457,24.3716174 7.88013722,24.7369164 L6.65788209,23.5147119 C7.02313045,23.0033541 7.22013768,22.392581 7.22013768,21.7515732 C7.22013768,20.9391336 6.90376129,20.1753128 6.32924972,19.6008012 C5.7547888,19.0263403 4.99096797,18.7099639 4.17852839,18.7099639 C3.53752055,18.7099639 2.9267475,18.9069205 2.41538966,19.2722195 L1.19318517,18.0499137 C1.55843353,17.5385559 1.75544076,16.9278335 1.75544076,16.286775 C1.75544076,15.6457165 1.55848418,15.0349941 1.19318517,14.5236363 L14.5236363,1.19323581 C15.0349941,1.55853482 15.6457165,1.75549141 16.2867244,1.75549141 C16.9277322,1.75549141 17.5384546,1.55853482 18.0498124,1.19323581 L19.2723714,2.41584546 C18.4272661,3.60290264 18.5367596,5.26541069 19.6006493,6.32935101 C20.1751609,6.90381194 20.938931,7.22018833 21.7513706,7.22018833 C22.3923785,7.22018833 23.0031009,7.02323174 23.5144587,6.65793273 L24.7367138,7.88018787 C24.3714655,8.3915457 24.1744583,9.00231876 24.1744583,9.6433266 C24.1746102,10.2843851 24.3715161,10.8951075 24.7368151,11.4064653 L11.406364,24.7368658 Z" id="Shape"></path>
                <path d="M23.2814432,11.077833 L14.8522686,2.64860773 C14.6544511,2.45089147 14.3338206,2.45089147 14.1360537,2.64860773 L2.64850644,14.1360537 C2.55354794,14.2310628 2.5001686,14.3598518 2.5001686,14.4941611 C2.5001686,14.6284704 2.55354794,14.7573101 2.64850644,14.8522686 L11.0777317,23.2814939 C11.1766404,23.3804026 11.3062398,23.4298317 11.4358392,23.4298317 C11.5654385,23.4298317 11.6950885,23.380352 11.7939466,23.2814939 L23.2814432,11.7940479 C23.3764017,11.6990388 23.4297811,11.5702497 23.4297811,11.4359404 C23.4297811,11.3016311 23.3764017,11.1727915 23.2814432,11.077833 Z M11.4358898,22.2072221 L3.72287954,14.4941611 L14.4941611,3.72293018 L22.2071714,11.4359404 L11.4358898,22.2072221 Z" id="Shape"></path>
                <path d="M13.5050228,15.3304543 L12.48489,14.5484521 L12.4518191,13.263499 C12.4470585,13.0778362 12.3409582,12.909595 12.1754519,12.8252719 C12.0098949,12.7409487 11.8115203,12.754015 11.6584725,12.8592544 L10.599546,13.587776 L9.36726325,13.2221224 C9.18914644,13.1693002 8.99644399,13.2181722 8.86512272,13.3495441 C8.73375081,13.480916 8.68482819,13.6736184 8.73770108,13.8516846 L9.10330395,15.084018 L8.37483301,16.1429445 C8.26954303,16.2959923 8.25652738,16.4944176 8.34085053,16.6599239 C8.42517367,16.8254302 8.59336416,16.9314799 8.77907766,16.9362911 L10.0640307,16.969362 L10.8460329,17.9894948 C10.942764,18.1156503 11.0919121,18.1878188 11.2478973,18.1878188 C11.2742325,18.1878188 11.3007195,18.185793 11.3272066,18.1815895 C11.5106918,18.1525195 11.663537,18.0253511 11.7254752,17.8501717 L12.1539786,16.6383493 L13.365801,16.209846 C13.5409298,16.1479077 13.6681488,15.9950625 13.6971681,15.8115774 C13.7261875,15.6281429 13.652449,15.4434929 13.5050228,15.3304543 Z M11.5882286,15.7640221 C11.4439929,15.8150212 11.3305492,15.9284649 11.2795501,16.0727006 L11.0817326,16.6321707 L10.7206877,16.1612272 C10.6276031,16.0398323 10.4846842,15.9670054 10.3317884,15.9630551 L9.73853832,15.9478111 L10.0748687,15.4589395 C10.1615721,15.3329359 10.1866411,15.1744691 10.1431375,15.0278532 L9.97433926,14.4589126 L10.5432799,14.6277108 C10.6898958,14.6711638 10.8483626,14.6460947 10.9744168,14.5594419 L11.4632885,14.2231116 L11.4785325,14.816311 C11.4824828,14.9692069 11.5553096,15.1121257 11.6767046,15.2052104 L12.1476481,15.5662552 L11.5882286,15.7640221 Z" id="Shape"></path>
                <path d="M17.1421105,8.7879911 C16.9443436,8.5902242 16.6237131,8.5902242 16.4258955,8.7879911 L13.9190418,11.2948448 C13.7212243,11.4926623 13.7212243,11.8133435 13.9190418,12.0110598 C14.0179506,12.1099685 14.14755,12.1593976 14.2771493,12.1593976 C14.4067487,12.1593976 14.536348,12.1099685 14.6352568,12.0110598 L17.1421105,9.50420607 C17.3398774,9.30643917 17.3398774,8.985758 17.1421105,8.7879911 Z" id="Shape"></path>
                <path d="M14.573825,8.29440949 C14.3760075,8.0966426 14.0553769,8.0966426 13.8575594,8.29440949 L12.3880576,9.76391123 C12.1902907,9.96167813 12.1902907,10.2823593 12.3881083,10.4801262 C12.4870171,10.5789843 12.6166164,10.628464 12.7462158,10.628464 C12.8758151,10.628464 13.0054651,10.5789843 13.1043233,10.4801262 L14.573825,9.01062446 C14.7715919,8.81285756 14.7715919,8.49217639 14.573825,8.29440949 Z" id="Shape"></path>
                <path d="M15.6122911,7.25822237 C15.4150307,7.05984774 15.0943495,7.05893614 14.8960762,7.2560953 L14.8875679,7.26455294 C14.6891932,7.46176274 14.6882816,7.78239328 14.8854408,7.98076791 C14.9844509,8.08033506 15.114506,8.13016928 15.2446118,8.13016928 C15.3737047,8.13016928 15.5028989,8.08109472 15.6016558,7.98289498 L15.6101641,7.97443734 C15.8085387,7.77722753 15.8094503,7.45654636 15.6122911,7.25822237 Z" id="Shape"></path>
                <path d="M16.174648,12.8173207 C15.9768305,12.6195538 15.6561999,12.6195538 15.458433,12.8173207 L15.4499754,12.8257783 C15.2522085,13.0235452 15.2522085,13.3442264 15.4499754,13.5419933 C15.5488842,13.6409021 15.6784835,13.6903311 15.8080829,13.6903311 C15.9376822,13.6903311 16.0672816,13.6408514 16.1661904,13.5419933 L16.174648,13.5335357 C16.3724149,13.3357688 16.3724149,13.0150876 16.174648,12.8173207 Z" id="Shape"></path>
                <path d="M18.6729934,10.3189247 C18.4752265,10.1212084 18.1545453,10.1211578 17.9567784,10.3189753 L16.4872767,11.788477 C16.2894592,11.9861933 16.2894592,12.3068745 16.4872767,12.5046414 C16.5861855,12.6034995 16.7157848,12.6529792 16.8453842,12.6529792 C16.9749835,12.6529792 17.1046335,12.6034995 17.2034917,12.5046414 L18.6729934,11.0351396 C18.8707603,10.8373727 18.8707603,10.5166915 18.6729934,10.3189247 Z" id="Shape"></path>
            </g>
        </g>
    </g>
</svg>