<svg width="14" height="15" xmlns="http://www.w3.org/2000/svg"><g fill="#FFF"><path d="M13.563 2.159h-3.275v-.51C10.288.74 9.511 0 8.557 0H5.443C4.49 0 3.712.74 3.712 1.65v.509H.437A.425.425 0 0 0 0 2.575c0 .231.194.416.437.416h.79v9.782C1.227 14.001 2.275 15 3.563 15h6.874c1.288 0 2.336-1 2.336-2.227V2.991h.79A.425.425 0 0 0 14 2.575a.425.425 0 0 0-.437-.416zm-8.977-.51c0-.45.385-.816.857-.816h3.114c.472 0 .857.367.857.817v.509H4.586v-.51zM11.9 12.774c0 .768-.657 1.394-1.463 1.394H3.563c-.806 0-1.463-.626-1.463-1.394V2.991h9.803v9.782H11.9z"/><path d="M6.65 12.955c.194 0 .35-.185.35-.416v-7.35c0-.231-.156-.416-.35-.416-.194 0-.35.185-.35.416v7.347c0 .23.156.419.35.419zm-2.8-.682c.194 0 .35-.191.35-.43v-6.64c0-.239-.156-.43-.35-.43-.194 0-.35.191-.35.43v6.642c0 .238.158.429.35.429zm5.6 0c.194 0 .35-.191.35-.43v-6.64c0-.239-.156-.43-.35-.43-.194 0-.35.191-.35.43v6.642c0 .238.156.429.35.429z"/></g></svg>