<svg width="12" height="17" xmlns="http://www.w3.org/2000/svg"><g fill="#4E5058"><path d="M6 4c-1.103 0-2 .897-2 2s.897 2 2 2 2-.897 2-2-.897-2-2-2zm0 3.429A1.43 1.43 0 0 1 4.571 6c0-.788.641-1.429 1.429-1.429S7.429 5.212 7.429 6A1.43 1.43 0 0 1 6 7.429z"/><path d="M10.244 1.744A5.985 5.985 0 0 0 6 0C4.398 0 2.89.62 1.758 1.744-.34 3.824-.6 7.74 1.193 10.11L6.001 17l4.8-6.879c1.8-2.381 1.54-6.296-.557-8.377zm.05 8.014L6 15.91 1.7 9.75C.074 7.596.307 4.06 2.201 2.183A5.36 5.36 0 0 1 6 .62c1.435 0 2.785.555 3.8 1.562 1.893 1.878 2.126 5.413.492 7.575z"/></g></svg>