<svg width="40" height="40" xmlns="http://www.w3.org/2000/svg"><path d="M20 .038C9.013.038.106 8.945.106 19.932.106 30.919 9.013 39.826 20 39.826c10.987 0 19.894-8.907 19.894-19.894C39.894 8.945 30.987.038 20 .038zM7.695 19.9l-1.603-1.012a.703.703 0 0 1-.22-.97L9.59 12.03a.703.703 0 0 1 .97-.22l1.604 1.013a.703.703 0 0 1 .219.97L8.666 19.68a.703.703 0 0 1-.97.219zm3.885 5.296a.773.773 0 0 1-.584-.13l-.031-.022a.78.78 0 0 1-.187-1.08l.959-1.37a.773.773 0 0 1 .635-.33.8.8 0 0 1 .422.12.772.772 0 0 1 .256 1.06l-1.01 1.479a.768.768 0 0 1-.46.273zm2.266 1.1l-.14.205a.79.79 0 0 1-.515.335.8.8 0 0 1-.802-1.234l.206-.302c.014-.018.03-.033.043-.051.298-.435.65-.952.947-1.39.008-.013.013-.026.02-.038l.805-1.178a.8.8 0 0 1 1.092-.218c.18.118.304.3.346.51a.79.79 0 0 1-.123.606l-.277.406-.02.023-1.514 2.201c-.027.04-.045.083-.068.125zm2.16.83l-.226.329a.796.796 0 0 1-1.383-.775L16 24.326a.786.786 0 0 1 .639-.321.79.79 0 0 1 .498.177.8.8 0 0 1 .155 1.07l-.456.663c-.01.015-.024.026-.034.04l-.737 1.06c-.025.034-.04.074-.06.11zm2.41-.045l-.737 1.058a.644.644 0 0 1-.778.228.645.645 0 0 1-.345-.857l.833-1.211a.638.638 0 0 1 .908-.089.65.65 0 0 1 .12.87zm9.875-3.51c-.269.445-.899.561-1.344.295l-.638-.382-.17-.102-3.427-2.05a.335.335 0 1 0-.345.575l3.598 2.153.242.145a.655.655 0 0 1 .305.42.656.656 0 0 1-.092.51c-.306.467-.93.622-1.419.356l-3.349-1.826a.335.335 0 1 0-.32.59l2.42 1.32.6.365a.622.622 0 0 1 .289.417.64.64 0 0 1-.126.514.988.988 0 0 1-1.285.35l-2.593-1.316a.336.336 0 0 0-.304.598l1.863.946c.249.127.25.495-.006.606a2.354 2.354 0 0 1-1.3.168l-2.05-.313a.104.104 0 0 1-.07-.163l.174-.248c.24-.344.33-.783.201-1.182a1.322 1.322 0 0 0-1.037-.907.103.103 0 0 1-.082-.137c.19-.567.019-1.22-.465-1.611a1.459 1.459 0 0 0-.93-.321.102.102 0 0 1-.104-.115 1.46 1.46 0 0 0-.79-1.44c-.668-.345-1.492-.092-1.915.528l-.008.01c-.044.066-.139.057-.179-.01a1.467 1.467 0 0 0-.5-.508 1.445 1.445 0 0 0-1.811.243c-.045.048-.12.048-.16-.004l-1.369-1.806a.896.896 0 0 1-.044-1.02l2.613-4.14a.896.896 0 0 1 1.171-.316l.343.178c.115.06.238.1.366.12l1.583.252-1.467 1.909a1.251 1.251 0 0 0-.272.687 1.21 1.21 0 0 0 .543 1.087c.379.25.873.243 1.274.033l3.63-1.898c.17-.09.377-.08.539.026l7.921 5.134c.213.138.36.35.411.6a.938.938 0 0 1-.115.68zm2.195-3.432l-1.884 1.78a1.631 1.631 0 0 0-.242-.192l-7.921-5.134a1.206 1.206 0 0 0-1.215-.057L15.54 18.46a.538.538 0 0 1-.778-.403.532.532 0 0 1 .106-.397l1.733-2.254c.319-.415.78-.698 1.295-.793l2.032-.378a8.863 8.863 0 0 1 3.441.04l2.16.454c.235.049.478.027.7-.062l.633-.256a.472.472 0 0 1 .576.186l3.122 4.946c.12.19.09.44-.075.595zm3.426-1.508l-1.634 1.047a.703.703 0 0 1-.975-.216l-3.716-5.887a.703.703 0 0 1 .215-.967l1.635-1.048a.703.703 0 0 1 .974.217l3.716 5.886c.207.327.11.76-.215.968z" fill="#FFF"/></svg>