<svg width="25" height="25" xmlns="http://www.w3.org/2000/svg"><path d="M12.5 1.563c6.03 0 10.938 4.907 10.938 10.937 0 6.03-4.908 10.938-10.938 10.938S1.562 18.53 1.562 12.5 6.47 1.562 12.5 1.562zM12.5 0C5.597 0 0 5.597 0 12.5S5.597 25 12.5 25 25 19.403 25 12.5 19.403 0 12.5 0zm6.969 16.68l-.07-.214c-.165-.492-.709-1.004-1.209-1.142l-1.848-.505c-.5-.135-1.214.048-1.582.415l-.668.669A7.098 7.098 0 0 1 9.1 10.91l.669-.668c.366-.367.55-1.08.413-1.583L9.68 6.812c-.136-.501-.652-1.044-1.143-1.209l-.21-.07c-.494-.165-1.197.001-1.563.37l-1.001 1c-.179.177-.293.685-.293.687a11.826 11.826 0 0 0 3.457 8.484 11.813 11.813 0 0 0 8.455 3.456c.017 0 .54-.112.719-.29l1.001-1.001c.366-.365.53-1.068.368-1.56z" fill="#4E5058"/></svg>