<svg width="26" height="26" xmlns="http://www.w3.org/2000/svg"><g fill="#2384DE"><path d="M25.188 9.643c0-.542.21-1.051.594-1.434a.507.507 0 0 0 0-.716l-1.88-1.88a.507.507 0 0 0-.716 0 2.015 2.015 0 0 1-1.434.594 2.03 2.03 0 0 1-1.435-3.463.506.506 0 0 0 0-.716l-1.88-1.88a.507.507 0 0 0-.716 0 2.015 2.015 0 0 1-1.434.595 2.015 2.015 0 0 1-1.435-.595.506.506 0 0 0-.716 0L.148 14.136a.507.507 0 0 0 0 .716c.384.383.595.893.595 1.435S.532 17.338.148 17.72a.507.507 0 0 0 0 .717l1.88 1.879a.506.506 0 0 0 .716 0 2.016 2.016 0 0 1 1.435-.594c.542 0 1.051.21 1.434.594.383.383.594.893.594 1.435 0 .541-.21 1.05-.594 1.434a.507.507 0 0 0 0 .716l1.88 1.88a.505.505 0 0 0 .716 0 2.016 2.016 0 0 1 1.434-.594c.542 0 1.052.21 1.435.594a.507.507 0 0 0 .716 0l13.988-13.988a.507.507 0 0 0 0-.716 2.015 2.015 0 0 1-.594-1.435zM11.406 24.737a3.02 3.02 0 0 0-1.763-.562 3.02 3.02 0 0 0-1.763.562l-1.222-1.222a3.02 3.02 0 0 0 .562-1.763c0-.813-.316-1.577-.89-2.151a3.022 3.022 0 0 0-2.151-.891 3.02 3.02 0 0 0-1.764.562L1.193 18.05a3.02 3.02 0 0 0 .562-1.763 3.02 3.02 0 0 0-.562-1.763l13.33-13.33a3.02 3.02 0 0 0 1.764.561 3.02 3.02 0 0 0 1.763-.562l1.222 1.223a3.047 3.047 0 0 0 .329 3.913 3.018 3.018 0 0 0 2.15.891 3.02 3.02 0 0 0 1.763-.562l1.223 1.222a3.02 3.02 0 0 0-.563 1.763c0 .641.198 1.252.563 1.763l-13.33 13.33z"/><path d="M23.281 11.078l-8.429-8.43a.507.507 0 0 0-.716 0L2.65 14.137a.507.507 0 0 0 0 .716l8.429 8.43a.505.505 0 0 0 .716 0l11.485-11.49a.507.507 0 0 0 0-.716zm-11.845 11.13l-7.713-7.714L14.494 3.723l7.713 7.713-10.771 10.771z"/><path d="M13.505 15.33l-1.02-.782-.033-1.285a.506.506 0 0 0-.794-.404l-1.058.729-1.233-.366a.506.506 0 0 0-.63.63l.366 1.232-.728 1.059a.506.506 0 0 0 .404.793l1.285.033.782 1.02a.507.507 0 0 0 .88-.139l.428-1.212 1.212-.428a.506.506 0 0 0 .139-.88zm-1.917.434a.506.506 0 0 0-.308.309l-.198.56-.361-.472a.507.507 0 0 0-.39-.198l-.592-.015.336-.49a.506.506 0 0 0 .068-.43l-.169-.57.57.17a.507.507 0 0 0 .43-.069l.49-.336.015.593a.507.507 0 0 0 .198.39l.47.36-.559.198zm5.554-6.976a.506.506 0 0 0-.716 0l-2.507 2.507a.506.506 0 1 0 .716.716l2.507-2.507a.506.506 0 0 0 0-.716zm-2.568-.494a.507.507 0 0 0-.716 0l-1.47 1.47a.506.506 0 1 0 .716.716l1.47-1.47a.506.506 0 0 0 0-.716zm1.038-1.036a.506.506 0 0 0-.716-.002l-.008.009a.506.506 0 0 0 .714.718l.008-.009a.506.506 0 0 0 .002-.716zm.563 5.559a.506.506 0 0 0-.717 0l-.008.009a.506.506 0 0 0 .716.716l.009-.008a.506.506 0 0 0 0-.717zm2.498-2.498a.506.506 0 0 0-.716 0l-1.47 1.47a.506.506 0 1 0 .716.716l1.47-1.47a.506.506 0 0 0 0-.716z"/></g></svg>